<?xml version="1.0" encoding="utf-8" standalone="no"?>
<!DOCTYPE svg PUBLIC "-//W3C//DTD SVG 1.1//EN"
  "http://www.w3.org/Graphics/SVG/1.1/DTD/svg11.dtd">
<svg height="221.754687pt" version="1.1" viewBox="0 0 380.482812 221.754687" width="380.482812pt" xmlns="http://www.w3.org/2000/svg" xmlns:xlink="http://www.w3.org/1999/xlink">
 <metadata>
  <rdf:RDF xmlns:cc="http://creativecommons.org/ns#" xmlns:dc="http://purl.org/dc/elements/1.1/" xmlns:rdf="http://www.w3.org/1999/02/22-rdf-syntax-ns#">
   <cc:Work>
    <dc:type rdf:resource="http://purl.org/dc/dcmitype/StillImage"/>
    <dc:date>2021-08-12T17:59:34.484872</dc:date>
    <dc:format>image/svg+xml</dc:format>
    <dc:creator>
     <cc:Agent>
      <dc:title>Matplotlib v3.4.2, https://matplotlib.org/</dc:title>
     </cc:Agent>
    </dc:creator>
   </cc:Work>
  </rdf:RDF>
 </metadata>
 <defs>
  <style type="text/css">*{stroke-linecap:butt;stroke-linejoin:round;}</style>
 </defs>
 <g id="figure_1">
  <g id="patch_1">
   <path d="M -0 221.754687 
L 380.482812 221.754687 
L 380.482812 0 
L -0 0 
z
" style="fill:none;"/>
  </g>
  <g id="axes_1">
   <g id="patch_2">
    <path d="M 38.482813 185.198437 
L 373.282813 185.198437 
L 373.282813 17.798437 
L 38.482813 17.798437 
z
" style="fill:#ffffff;"/>
   </g>
   <g id="PatchCollection_1">
    <path clip-path="url(#pcc5cc512a9)" d="M 88.253845 59.960379 
L 88.253845 25.407528 
L 53.700994 25.407528 
L 53.700994 59.960379 
L 88.253845 59.960379 
" style="fill:#1f77b4;fill-opacity:0.5;stroke:#000000;stroke-opacity:0.5;"/>
    <path clip-path="url(#pcc5cc512a9)" d="M 88.253845 94.513229 
L 88.253845 59.960379 
L 53.700994 59.960379 
L 53.700994 94.513229 
L 88.253845 94.513229 
" style="fill:#1f77b4;fill-opacity:0.5;stroke:#000000;stroke-opacity:0.5;"/>
    <path clip-path="url(#pcc5cc512a9)" d="M 88.253845 129.06608 
L 88.253845 94.513229 
L 53.700994 94.513229 
L 53.700994 129.06608 
L 88.253845 129.06608 
" style="fill:#1f77b4;fill-opacity:0.5;stroke:#000000;stroke-opacity:0.5;"/>
    <path clip-path="url(#pcc5cc512a9)" d="M 88.253845 163.61893 
L 88.253845 129.06608 
L 53.700994 129.06608 
L 53.700994 163.61893 
L 88.253845 163.61893 
" style="fill:#1f77b4;fill-opacity:0.5;stroke:#000000;stroke-opacity:0.5;"/>
    <path clip-path="url(#pcc5cc512a9)" d="M 88.253845 177.589347 
L 88.253845 163.61893 
L 53.700994 163.61893 
L 53.700994 177.589347 
L 88.253845 177.589347 
" style="fill:#1f77b4;fill-opacity:0.5;stroke:#000000;stroke-opacity:0.5;"/>
    <path clip-path="url(#pcc5cc512a9)" d="M 122.806695 59.960379 
L 122.806695 25.407528 
L 88.253845 25.407528 
L 88.253845 59.960379 
L 122.806695 59.960379 
" style="fill:#1f77b4;fill-opacity:0.5;stroke:#000000;stroke-opacity:0.5;"/>
    <path clip-path="url(#pcc5cc512a9)" d="M 122.806695 94.513229 
L 122.806695 59.960379 
L 88.253845 59.960379 
L 88.253845 94.513229 
L 122.806695 94.513229 
" style="fill:#1f77b4;fill-opacity:0.5;stroke:#000000;stroke-opacity:0.5;"/>
    <path clip-path="url(#pcc5cc512a9)" d="M 122.806695 129.06608 
L 122.806695 94.513229 
L 88.253845 94.513229 
L 88.253845 129.06608 
L 122.806695 129.06608 
" style="fill:#1f77b4;fill-opacity:0.5;stroke:#000000;stroke-opacity:0.5;"/>
    <path clip-path="url(#pcc5cc512a9)" d="M 122.806695 163.61893 
L 122.806695 129.06608 
L 88.253845 129.06608 
L 88.253845 163.61893 
L 122.806695 163.61893 
" style="fill:#1f77b4;fill-opacity:0.5;stroke:#000000;stroke-opacity:0.5;"/>
    <path clip-path="url(#pcc5cc512a9)" d="M 122.806695 177.589347 
L 122.806695 163.61893 
L 88.253845 163.61893 
L 88.253845 177.589347 
L 122.806695 177.589347 
" style="fill:#1f77b4;fill-opacity:0.5;stroke:#000000;stroke-opacity:0.5;"/>
    <path clip-path="url(#pcc5cc512a9)" d="M 157.359545 59.960379 
L 157.359545 25.407528 
L 122.806695 25.407528 
L 122.806695 59.960379 
L 157.359545 59.960379 
" style="fill:#1f77b4;fill-opacity:0.5;stroke:#000000;stroke-opacity:0.5;"/>
    <path clip-path="url(#pcc5cc512a9)" d="M 157.359545 94.513229 
L 157.359545 59.960379 
L 122.806695 59.960379 
L 122.806695 94.513229 
L 157.359545 94.513229 
" style="fill:#1f77b4;fill-opacity:0.5;stroke:#000000;stroke-opacity:0.5;"/>
    <path clip-path="url(#pcc5cc512a9)" d="M 157.359545 129.06608 
L 157.359545 94.513229 
L 122.806695 94.513229 
L 122.806695 129.06608 
L 157.359545 129.06608 
" style="fill:#1f77b4;fill-opacity:0.5;stroke:#000000;stroke-opacity:0.5;"/>
    <path clip-path="url(#pcc5cc512a9)" d="M 157.359545 163.61893 
L 157.359545 129.06608 
L 122.806695 129.06608 
L 122.806695 163.61893 
L 157.359545 163.61893 
" style="fill:#1f77b4;fill-opacity:0.5;stroke:#000000;stroke-opacity:0.5;"/>
    <path clip-path="url(#pcc5cc512a9)" d="M 157.359545 177.589347 
L 157.359545 163.61893 
L 122.806695 163.61893 
L 122.806695 177.589347 
L 157.359545 177.589347 
" style="fill:#1f77b4;fill-opacity:0.5;stroke:#000000;stroke-opacity:0.5;"/>
    <path clip-path="url(#pcc5cc512a9)" d="M 191.912396 59.960379 
L 191.912396 25.407528 
L 157.359545 25.407528 
L 157.359545 59.960379 
L 191.912396 59.960379 
" style="fill:#1f77b4;fill-opacity:0.5;stroke:#000000;stroke-opacity:0.5;"/>
    <path clip-path="url(#pcc5cc512a9)" d="M 191.912396 94.513229 
L 191.912396 59.960379 
L 157.359545 59.960379 
L 157.359545 94.513229 
L 191.912396 94.513229 
" style="fill:#1f77b4;fill-opacity:0.5;stroke:#000000;stroke-opacity:0.5;"/>
    <path clip-path="url(#pcc5cc512a9)" d="M 191.912396 129.06608 
L 191.912396 94.513229 
L 157.359545 94.513229 
L 157.359545 129.06608 
L 191.912396 129.06608 
" style="fill:#1f77b4;fill-opacity:0.5;stroke:#000000;stroke-opacity:0.5;"/>
    <path clip-path="url(#pcc5cc512a9)" d="M 191.912396 163.61893 
L 191.912396 129.06608 
L 157.359545 129.06608 
L 157.359545 163.61893 
L 191.912396 163.61893 
" style="fill:#1f77b4;fill-opacity:0.5;stroke:#000000;stroke-opacity:0.5;"/>
    <path clip-path="url(#pcc5cc512a9)" d="M 191.912396 177.589347 
L 191.912396 163.61893 
L 157.359545 163.61893 
L 157.359545 177.589347 
L 191.912396 177.589347 
" style="fill:#1f77b4;fill-opacity:0.5;stroke:#000000;stroke-opacity:0.5;"/>
    <path clip-path="url(#pcc5cc512a9)" d="M 226.465246 59.960379 
L 226.465246 25.407528 
L 191.912396 25.407528 
L 191.912396 59.960379 
L 226.465246 59.960379 
" style="fill:#1f77b4;fill-opacity:0.5;stroke:#000000;stroke-opacity:0.5;"/>
    <path clip-path="url(#pcc5cc512a9)" d="M 226.465246 94.513229 
L 226.465246 59.960379 
L 191.912396 59.960379 
L 191.912396 94.513229 
L 226.465246 94.513229 
" style="fill:#1f77b4;fill-opacity:0.5;stroke:#000000;stroke-opacity:0.5;"/>
    <path clip-path="url(#pcc5cc512a9)" d="M 226.465246 129.06608 
L 226.465246 94.513229 
L 191.912396 94.513229 
L 191.912396 129.06608 
L 226.465246 129.06608 
" style="fill:#1f77b4;fill-opacity:0.5;stroke:#000000;stroke-opacity:0.5;"/>
    <path clip-path="url(#pcc5cc512a9)" d="M 226.465246 163.61893 
L 226.465246 129.06608 
L 191.912396 129.06608 
L 191.912396 163.61893 
L 226.465246 163.61893 
" style="fill:#1f77b4;fill-opacity:0.5;stroke:#000000;stroke-opacity:0.5;"/>
    <path clip-path="url(#pcc5cc512a9)" d="M 226.465246 177.589347 
L 226.465246 163.61893 
L 191.912396 163.61893 
L 191.912396 177.589347 
L 226.465246 177.589347 
" style="fill:#1f77b4;fill-opacity:0.5;stroke:#000000;stroke-opacity:0.5;"/>
    <path clip-path="url(#pcc5cc512a9)" d="M 261.018097 59.960379 
L 261.018097 25.407528 
L 226.465246 25.407528 
L 226.465246 59.960379 
L 261.018097 59.960379 
" style="fill:#1f77b4;fill-opacity:0.5;stroke:#000000;stroke-opacity:0.5;"/>
    <path clip-path="url(#pcc5cc512a9)" d="M 261.018097 94.513229 
L 261.018097 59.960379 
L 226.465246 59.960379 
L 226.465246 94.513229 
L 261.018097 94.513229 
" style="fill:#1f77b4;fill-opacity:0.5;stroke:#000000;stroke-opacity:0.5;"/>
    <path clip-path="url(#pcc5cc512a9)" d="M 261.018097 129.06608 
L 261.018097 94.513229 
L 226.465246 94.513229 
L 226.465246 129.06608 
L 261.018097 129.06608 
" style="fill:#1f77b4;fill-opacity:0.5;stroke:#000000;stroke-opacity:0.5;"/>
    <path clip-path="url(#pcc5cc512a9)" d="M 261.018097 163.61893 
L 261.018097 129.06608 
L 226.465246 129.06608 
L 226.465246 163.61893 
L 261.018097 163.61893 
" style="fill:#1f77b4;fill-opacity:0.5;stroke:#000000;stroke-opacity:0.5;"/>
    <path clip-path="url(#pcc5cc512a9)" d="M 261.018097 177.589347 
L 261.018097 163.61893 
L 226.465246 163.61893 
L 226.465246 177.589347 
L 261.018097 177.589347 
" style="fill:#1f77b4;fill-opacity:0.5;stroke:#000000;stroke-opacity:0.5;"/>
    <path clip-path="url(#pcc5cc512a9)" d="M 295.570947 59.960379 
L 295.570947 25.407528 
L 261.018097 25.407528 
L 261.018097 59.960379 
L 295.570947 59.960379 
" style="fill:#1f77b4;fill-opacity:0.5;stroke:#000000;stroke-opacity:0.5;"/>
    <path clip-path="url(#pcc5cc512a9)" d="M 295.570947 94.513229 
L 295.570947 59.960379 
L 261.018097 59.960379 
L 261.018097 94.513229 
L 295.570947 94.513229 
" style="fill:#1f77b4;fill-opacity:0.5;stroke:#000000;stroke-opacity:0.5;"/>
    <path clip-path="url(#pcc5cc512a9)" d="M 295.570947 129.06608 
L 295.570947 94.513229 
L 261.018097 94.513229 
L 261.018097 129.06608 
L 295.570947 129.06608 
" style="fill:#1f77b4;fill-opacity:0.5;stroke:#000000;stroke-opacity:0.5;"/>
    <path clip-path="url(#pcc5cc512a9)" d="M 295.570947 163.61893 
L 295.570947 129.06608 
L 261.018097 129.06608 
L 261.018097 163.61893 
L 295.570947 163.61893 
" style="fill:#1f77b4;fill-opacity:0.5;stroke:#000000;stroke-opacity:0.5;"/>
    <path clip-path="url(#pcc5cc512a9)" d="M 295.570947 177.589347 
L 295.570947 163.61893 
L 261.018097 163.61893 
L 261.018097 177.589347 
L 295.570947 177.589347 
" style="fill:#1f77b4;fill-opacity:0.5;stroke:#000000;stroke-opacity:0.5;"/>
    <path clip-path="url(#pcc5cc512a9)" d="M 330.123797 59.960379 
L 330.123797 25.407528 
L 295.570947 25.407528 
L 295.570947 59.960379 
L 330.123797 59.960379 
" style="fill:#1f77b4;fill-opacity:0.5;stroke:#000000;stroke-opacity:0.5;"/>
    <path clip-path="url(#pcc5cc512a9)" d="M 330.123797 94.513229 
L 330.123797 59.960379 
L 295.570947 59.960379 
L 295.570947 94.513229 
L 330.123797 94.513229 
" style="fill:#1f77b4;fill-opacity:0.5;stroke:#000000;stroke-opacity:0.5;"/>
    <path clip-path="url(#pcc5cc512a9)" d="M 330.123797 129.06608 
L 330.123797 94.513229 
L 295.570947 94.513229 
L 295.570947 129.06608 
L 330.123797 129.06608 
" style="fill:#1f77b4;fill-opacity:0.5;stroke:#000000;stroke-opacity:0.5;"/>
    <path clip-path="url(#pcc5cc512a9)" d="M 330.123797 163.61893 
L 330.123797 129.06608 
L 295.570947 129.06608 
L 295.570947 163.61893 
L 330.123797 163.61893 
" style="fill:#1f77b4;fill-opacity:0.5;stroke:#000000;stroke-opacity:0.5;"/>
    <path clip-path="url(#pcc5cc512a9)" d="M 330.123797 177.589347 
L 330.123797 163.61893 
L 295.570947 163.61893 
L 295.570947 177.589347 
L 330.123797 177.589347 
" style="fill:#1f77b4;fill-opacity:0.5;stroke:#000000;stroke-opacity:0.5;"/>
    <path clip-path="url(#pcc5cc512a9)" d="M 358.064631 59.960379 
L 358.064631 25.407528 
L 330.123797 25.407528 
L 330.123797 59.960379 
L 358.064631 59.960379 
" style="fill:#1f77b4;fill-opacity:0.5;stroke:#000000;stroke-opacity:0.5;"/>
    <path clip-path="url(#pcc5cc512a9)" d="M 358.064631 94.513229 
L 358.064631 59.960379 
L 330.123797 59.960379 
L 330.123797 94.513229 
L 358.064631 94.513229 
" style="fill:#1f77b4;fill-opacity:0.5;stroke:#000000;stroke-opacity:0.5;"/>
    <path clip-path="url(#pcc5cc512a9)" d="M 358.064631 129.06608 
L 358.064631 94.513229 
L 330.123797 94.513229 
L 330.123797 129.06608 
L 358.064631 129.06608 
" style="fill:#1f77b4;fill-opacity:0.5;stroke:#000000;stroke-opacity:0.5;"/>
    <path clip-path="url(#pcc5cc512a9)" d="M 358.064631 163.61893 
L 358.064631 129.06608 
L 330.123797 129.06608 
L 330.123797 163.61893 
L 358.064631 163.61893 
" style="fill:#1f77b4;fill-opacity:0.5;stroke:#000000;stroke-opacity:0.5;"/>
    <path clip-path="url(#pcc5cc512a9)" d="M 358.064631 177.589347 
L 358.064631 163.61893 
L 330.123797 163.61893 
L 330.123797 177.589347 
L 358.064631 177.589347 
" style="fill:#1f77b4;fill-opacity:0.5;stroke:#000000;stroke-opacity:0.5;"/>
   </g>
   <g id="matplotlib.axis_1">
    <g id="xtick_1">
     <g id="line2d_1">
      <defs>
       <path d="M 0 0 
L 0 3.5 
" id="md68ed979bf" style="stroke:#000000;stroke-width:0.8;"/>
      </defs>
      <g>
       <use style="stroke:#000000;stroke-width:0.8;" x="79.346495" xlink:href="#md68ed979bf" y="185.198437"/>
      </g>
     </g>
     <g id="text_1">
      <!-- −1.5 -->
      <g transform="translate(67.205089 199.796875)scale(0.1 -0.1)">
       <defs>
        <path d="M 678 2272 
L 4684 2272 
L 4684 1741 
L 678 1741 
L 678 2272 
z
" id="DejaVuSans-2212" transform="scale(0.015625)"/>
        <path d="M 794 531 
L 1825 531 
L 1825 4091 
L 703 3866 
L 703 4441 
L 1819 4666 
L 2450 4666 
L 2450 531 
L 3481 531 
L 3481 0 
L 794 0 
L 794 531 
z
" id="DejaVuSans-31" transform="scale(0.015625)"/>
        <path d="M 684 794 
L 1344 794 
L 1344 0 
L 684 0 
L 684 794 
z
" id="DejaVuSans-2e" transform="scale(0.015625)"/>
        <path d="M 691 4666 
L 3169 4666 
L 3169 4134 
L 1269 4134 
L 1269 2991 
Q 1406 3038 1543 3061 
Q 1681 3084 1819 3084 
Q 2600 3084 3056 2656 
Q 3513 2228 3513 1497 
Q 3513 744 3044 326 
Q 2575 -91 1722 -91 
Q 1428 -91 1123 -41 
Q 819 9 494 109 
L 494 744 
Q 775 591 1075 516 
Q 1375 441 1709 441 
Q 2250 441 2565 725 
Q 2881 1009 2881 1497 
Q 2881 1984 2565 2268 
Q 2250 2553 1709 2553 
Q 1456 2553 1204 2497 
Q 953 2441 691 2322 
L 691 4666 
z
" id="DejaVuSans-35" transform="scale(0.015625)"/>
       </defs>
       <use xlink:href="#DejaVuSans-2212"/>
       <use x="83.789062" xlink:href="#DejaVuSans-31"/>
       <use x="147.412109" xlink:href="#DejaVuSans-2e"/>
       <use x="179.199219" xlink:href="#DejaVuSans-35"/>
      </g>
     </g>
    </g>
    <g id="xtick_2">
     <g id="line2d_2">
      <g>
       <use style="stroke:#000000;stroke-width:0.8;" x="121.525268" xlink:href="#md68ed979bf" y="185.198437"/>
      </g>
     </g>
     <g id="text_2">
      <!-- −1.0 -->
      <g transform="translate(109.383861 199.796875)scale(0.1 -0.1)">
       <defs>
        <path d="M 2034 4250 
Q 1547 4250 1301 3770 
Q 1056 3291 1056 2328 
Q 1056 1369 1301 889 
Q 1547 409 2034 409 
Q 2525 409 2770 889 
Q 3016 1369 3016 2328 
Q 3016 3291 2770 3770 
Q 2525 4250 2034 4250 
z
M 2034 4750 
Q 2819 4750 3233 4129 
Q 3647 3509 3647 2328 
Q 3647 1150 3233 529 
Q 2819 -91 2034 -91 
Q 1250 -91 836 529 
Q 422 1150 422 2328 
Q 422 3509 836 4129 
Q 1250 4750 2034 4750 
z
" id="DejaVuSans-30" transform="scale(0.015625)"/>
       </defs>
       <use xlink:href="#DejaVuSans-2212"/>
       <use x="83.789062" xlink:href="#DejaVuSans-31"/>
       <use x="147.412109" xlink:href="#DejaVuSans-2e"/>
       <use x="179.199219" xlink:href="#DejaVuSans-30"/>
      </g>
     </g>
    </g>
    <g id="xtick_3">
     <g id="line2d_3">
      <g>
       <use style="stroke:#000000;stroke-width:0.8;" x="163.70404" xlink:href="#md68ed979bf" y="185.198437"/>
      </g>
     </g>
     <g id="text_3">
      <!-- −0.5 -->
      <g transform="translate(151.562634 199.796875)scale(0.1 -0.1)">
       <use xlink:href="#DejaVuSans-2212"/>
       <use x="83.789062" xlink:href="#DejaVuSans-30"/>
       <use x="147.412109" xlink:href="#DejaVuSans-2e"/>
       <use x="179.199219" xlink:href="#DejaVuSans-35"/>
      </g>
     </g>
    </g>
    <g id="xtick_4">
     <g id="line2d_4">
      <g>
       <use style="stroke:#000000;stroke-width:0.8;" x="205.882812" xlink:href="#md68ed979bf" y="185.198437"/>
      </g>
     </g>
     <g id="text_4">
      <!-- 0.0 -->
      <g transform="translate(197.93125 199.796875)scale(0.1 -0.1)">
       <use xlink:href="#DejaVuSans-30"/>
       <use x="63.623047" xlink:href="#DejaVuSans-2e"/>
       <use x="95.410156" xlink:href="#DejaVuSans-30"/>
      </g>
     </g>
    </g>
    <g id="xtick_5">
     <g id="line2d_5">
      <g>
       <use style="stroke:#000000;stroke-width:0.8;" x="248.061585" xlink:href="#md68ed979bf" y="185.198437"/>
      </g>
     </g>
     <g id="text_5">
      <!-- 0.5 -->
      <g transform="translate(240.110022 199.796875)scale(0.1 -0.1)">
       <use xlink:href="#DejaVuSans-30"/>
       <use x="63.623047" xlink:href="#DejaVuSans-2e"/>
       <use x="95.410156" xlink:href="#DejaVuSans-35"/>
      </g>
     </g>
    </g>
    <g id="xtick_6">
     <g id="line2d_6">
      <g>
       <use style="stroke:#000000;stroke-width:0.8;" x="290.240357" xlink:href="#md68ed979bf" y="185.198437"/>
      </g>
     </g>
     <g id="text_6">
      <!-- 1.0 -->
      <g transform="translate(282.288795 199.796875)scale(0.1 -0.1)">
       <use xlink:href="#DejaVuSans-31"/>
       <use x="63.623047" xlink:href="#DejaVuSans-2e"/>
       <use x="95.410156" xlink:href="#DejaVuSans-30"/>
      </g>
     </g>
    </g>
    <g id="xtick_7">
     <g id="line2d_7">
      <g>
       <use style="stroke:#000000;stroke-width:0.8;" x="332.41913" xlink:href="#md68ed979bf" y="185.198437"/>
      </g>
     </g>
     <g id="text_7">
      <!-- 1.5 -->
      <g transform="translate(324.467567 199.796875)scale(0.1 -0.1)">
       <use xlink:href="#DejaVuSans-31"/>
       <use x="63.623047" xlink:href="#DejaVuSans-2e"/>
       <use x="95.410156" xlink:href="#DejaVuSans-35"/>
      </g>
     </g>
    </g>
    <g id="text_8">
     <!-- 1e7 -->
     <g transform="translate(354.404688 212.475)scale(0.1 -0.1)">
      <defs>
       <path d="M 3597 1894 
L 3597 1613 
L 953 1613 
Q 991 1019 1311 708 
Q 1631 397 2203 397 
Q 2534 397 2845 478 
Q 3156 559 3463 722 
L 3463 178 
Q 3153 47 2828 -22 
Q 2503 -91 2169 -91 
Q 1331 -91 842 396 
Q 353 884 353 1716 
Q 353 2575 817 3079 
Q 1281 3584 2069 3584 
Q 2775 3584 3186 3129 
Q 3597 2675 3597 1894 
z
M 3022 2063 
Q 3016 2534 2758 2815 
Q 2500 3097 2075 3097 
Q 1594 3097 1305 2825 
Q 1016 2553 972 2059 
L 3022 2063 
z
" id="DejaVuSans-65" transform="scale(0.015625)"/>
       <path d="M 525 4666 
L 3525 4666 
L 3525 4397 
L 1831 0 
L 1172 0 
L 2766 4134 
L 525 4134 
L 525 4666 
z
" id="DejaVuSans-37" transform="scale(0.015625)"/>
      </defs>
      <use xlink:href="#DejaVuSans-31"/>
      <use x="63.623047" xlink:href="#DejaVuSans-65"/>
      <use x="125.146484" xlink:href="#DejaVuSans-37"/>
     </g>
    </g>
   </g>
   <g id="matplotlib.axis_2">
    <g id="ytick_1">
     <g id="line2d_8">
      <defs>
       <path d="M 0 0 
L -3.5 0 
" id="m6ec8c299f8" style="stroke:#000000;stroke-width:0.8;"/>
      </defs>
      <g>
       <use style="stroke:#000000;stroke-width:0.8;" x="38.482813" xlink:href="#m6ec8c299f8" y="164.766596"/>
      </g>
     </g>
     <g id="text_9">
      <!-- −7.5 -->
      <g transform="translate(7.2 168.565815)scale(0.1 -0.1)">
       <use xlink:href="#DejaVuSans-2212"/>
       <use x="83.789062" xlink:href="#DejaVuSans-37"/>
       <use x="147.412109" xlink:href="#DejaVuSans-2e"/>
       <use x="179.199219" xlink:href="#DejaVuSans-35"/>
      </g>
     </g>
    </g>
    <g id="ytick_2">
     <g id="line2d_9">
      <g>
       <use style="stroke:#000000;stroke-width:0.8;" x="38.482813" xlink:href="#m6ec8c299f8" y="143.67721"/>
      </g>
     </g>
     <g id="text_10">
      <!-- −5.0 -->
      <g transform="translate(7.2 147.476429)scale(0.1 -0.1)">
       <use xlink:href="#DejaVuSans-2212"/>
       <use x="83.789062" xlink:href="#DejaVuSans-35"/>
       <use x="147.412109" xlink:href="#DejaVuSans-2e"/>
       <use x="179.199219" xlink:href="#DejaVuSans-30"/>
      </g>
     </g>
    </g>
    <g id="ytick_3">
     <g id="line2d_10">
      <g>
       <use style="stroke:#000000;stroke-width:0.8;" x="38.482813" xlink:href="#m6ec8c299f8" y="122.587824"/>
      </g>
     </g>
     <g id="text_11">
      <!-- −2.5 -->
      <g transform="translate(7.2 126.387042)scale(0.1 -0.1)">
       <defs>
        <path d="M 1228 531 
L 3431 531 
L 3431 0 
L 469 0 
L 469 531 
Q 828 903 1448 1529 
Q 2069 2156 2228 2338 
Q 2531 2678 2651 2914 
Q 2772 3150 2772 3378 
Q 2772 3750 2511 3984 
Q 2250 4219 1831 4219 
Q 1534 4219 1204 4116 
Q 875 4013 500 3803 
L 500 4441 
Q 881 4594 1212 4672 
Q 1544 4750 1819 4750 
Q 2544 4750 2975 4387 
Q 3406 4025 3406 3419 
Q 3406 3131 3298 2873 
Q 3191 2616 2906 2266 
Q 2828 2175 2409 1742 
Q 1991 1309 1228 531 
z
" id="DejaVuSans-32" transform="scale(0.015625)"/>
       </defs>
       <use xlink:href="#DejaVuSans-2212"/>
       <use x="83.789062" xlink:href="#DejaVuSans-32"/>
       <use x="147.412109" xlink:href="#DejaVuSans-2e"/>
       <use x="179.199219" xlink:href="#DejaVuSans-35"/>
      </g>
     </g>
    </g>
    <g id="ytick_4">
     <g id="line2d_11">
      <g>
       <use style="stroke:#000000;stroke-width:0.8;" x="38.482813" xlink:href="#m6ec8c299f8" y="101.498437"/>
      </g>
     </g>
     <g id="text_12">
      <!-- 0.0 -->
      <g transform="translate(15.579688 105.297656)scale(0.1 -0.1)">
       <use xlink:href="#DejaVuSans-30"/>
       <use x="63.623047" xlink:href="#DejaVuSans-2e"/>
       <use x="95.410156" xlink:href="#DejaVuSans-30"/>
      </g>
     </g>
    </g>
    <g id="ytick_5">
     <g id="line2d_12">
      <g>
       <use style="stroke:#000000;stroke-width:0.8;" x="38.482813" xlink:href="#m6ec8c299f8" y="80.409051"/>
      </g>
     </g>
     <g id="text_13">
      <!-- 2.5 -->
      <g transform="translate(15.579688 84.20827)scale(0.1 -0.1)">
       <use xlink:href="#DejaVuSans-32"/>
       <use x="63.623047" xlink:href="#DejaVuSans-2e"/>
       <use x="95.410156" xlink:href="#DejaVuSans-35"/>
      </g>
     </g>
    </g>
    <g id="ytick_6">
     <g id="line2d_13">
      <g>
       <use style="stroke:#000000;stroke-width:0.8;" x="38.482813" xlink:href="#m6ec8c299f8" y="59.319665"/>
      </g>
     </g>
     <g id="text_14">
      <!-- 5.0 -->
      <g transform="translate(15.579688 63.118884)scale(0.1 -0.1)">
       <use xlink:href="#DejaVuSans-35"/>
       <use x="63.623047" xlink:href="#DejaVuSans-2e"/>
       <use x="95.410156" xlink:href="#DejaVuSans-30"/>
      </g>
     </g>
    </g>
    <g id="ytick_7">
     <g id="line2d_14">
      <g>
       <use style="stroke:#000000;stroke-width:0.8;" x="38.482813" xlink:href="#m6ec8c299f8" y="38.230279"/>
      </g>
     </g>
     <g id="text_15">
      <!-- 7.5 -->
      <g transform="translate(15.579688 42.029498)scale(0.1 -0.1)">
       <use xlink:href="#DejaVuSans-37"/>
       <use x="63.623047" xlink:href="#DejaVuSans-2e"/>
       <use x="95.410156" xlink:href="#DejaVuSans-35"/>
      </g>
     </g>
    </g>
    <g id="text_16">
     <!-- 1e6 -->
     <g transform="translate(38.482813 14.798437)scale(0.1 -0.1)">
      <defs>
       <path d="M 2113 2584 
Q 1688 2584 1439 2293 
Q 1191 2003 1191 1497 
Q 1191 994 1439 701 
Q 1688 409 2113 409 
Q 2538 409 2786 701 
Q 3034 994 3034 1497 
Q 3034 2003 2786 2293 
Q 2538 2584 2113 2584 
z
M 3366 4563 
L 3366 3988 
Q 3128 4100 2886 4159 
Q 2644 4219 2406 4219 
Q 1781 4219 1451 3797 
Q 1122 3375 1075 2522 
Q 1259 2794 1537 2939 
Q 1816 3084 2150 3084 
Q 2853 3084 3261 2657 
Q 3669 2231 3669 1497 
Q 3669 778 3244 343 
Q 2819 -91 2113 -91 
Q 1303 -91 875 529 
Q 447 1150 447 2328 
Q 447 3434 972 4092 
Q 1497 4750 2381 4750 
Q 2619 4750 2861 4703 
Q 3103 4656 3366 4563 
z
" id="DejaVuSans-36" transform="scale(0.015625)"/>
      </defs>
      <use xlink:href="#DejaVuSans-31"/>
      <use x="63.623047" xlink:href="#DejaVuSans-65"/>
      <use x="125.146484" xlink:href="#DejaVuSans-36"/>
     </g>
    </g>
   </g>
   <g id="patch_3">
    <path d="M 38.482813 185.198437 
L 38.482813 17.798437 
" style="fill:none;stroke:#000000;stroke-linecap:square;stroke-linejoin:miter;stroke-width:0.8;"/>
   </g>
   <g id="patch_4">
    <path d="M 373.282813 185.198437 
L 373.282813 17.798437 
" style="fill:none;stroke:#000000;stroke-linecap:square;stroke-linejoin:miter;stroke-width:0.8;"/>
   </g>
   <g id="patch_5">
    <path d="M 38.482812 185.198437 
L 373.282812 185.198437 
" style="fill:none;stroke:#000000;stroke-linecap:square;stroke-linejoin:miter;stroke-width:0.8;"/>
   </g>
   <g id="patch_6">
    <path d="M 38.482812 17.798437 
L 373.282812 17.798437 
" style="fill:none;stroke:#000000;stroke-linecap:square;stroke-linejoin:miter;stroke-width:0.8;"/>
   </g>
  </g>
 </g>
 <defs>
  <clipPath id="pcc5cc512a9">
   <rect height="167.4" width="334.8" x="38.482813" y="17.798437"/>
  </clipPath>
 </defs>
</svg>
